<?xml version="1.0" encoding="UTF-8"?>
<!DOCTYPE svg PUBLIC "-//W3C//DTD SVG 1.1//EN" "http://www.w3.org/Graphics/SVG/1.1/DTD/svg11.dtd">
<svg xmlns="http://www.w3.org/2000/svg" version="1.1" width="366px" height="362px" style="shape-rendering:geometricPrecision; text-rendering:geometricPrecision; image-rendering:optimizeQuality; fill-rule:evenodd; clip-rule:evenodd" xmlns:xlink="http://www.w3.org/1999/xlink">
<g><path style="opacity:1" fill="#0e0e0e" d="M 145.5,-0.5 C 162.833,-0.5 180.167,-0.5 197.5,-0.5C 214.499,1.5001 230.165,7.16676 244.5,16.5C 244.821,18.0481 245.821,18.7148 247.5,18.5C 249.062,18.7329 250.395,19.3995 251.5,20.5C 252.035,22.4456 253.368,23.4456 255.5,23.5C 261.917,28.3734 267.917,33.7067 273.5,39.5C 273.738,41.4044 274.738,42.7377 276.5,43.5C 278.167,44.5 279.5,45.8333 280.5,47.5C 280.427,49.0269 281.094,50.0269 282.5,50.5C 319.066,100.478 324.566,153.811 299,210.5C 292.545,225.413 284.545,239.413 275,252.5C 259.467,271.954 239.633,278.954 215.5,273.5C 214.365,271.787 212.698,271.12 210.5,271.5C 208.708,271.634 207.042,271.301 205.5,270.5C 204.365,268.787 202.698,268.12 200.5,268.5C 191.33,264.754 182.996,259.754 175.5,253.5C 175.027,252.094 174.027,251.427 172.5,251.5C 163.494,242.494 154.827,233.16 146.5,223.5C 146.027,222.094 145.027,221.427 143.5,221.5C 143.167,220.833 142.833,220.167 142.5,219.5C 142.027,218.094 141.027,217.427 139.5,217.5C 134.334,213.506 129.5,209.173 125,204.5C 124.667,204.833 124.333,205.167 124,205.5C 124.138,222.152 123.138,238.819 121,255.5C 117.909,262.128 112.743,264.628 105.5,263C 102.667,261.5 100.5,259.333 99,256.5C 98.9458,248.481 99.4458,240.481 100.5,232.5C 101.229,213.318 101.896,193.985 102.5,174.5C 102.752,170.233 103.419,166.066 104.5,162C 103.457,151.805 104.124,141.638 106.5,131.5C 105.006,125.446 105.173,119.446 107,113.5C 110.655,108.832 115.489,106.666 121.5,107C 138.225,94.7773 155.892,93.2773 174.5,102.5C 174.821,104.048 175.821,104.715 177.5,104.5C 182.686,106.685 187.353,109.685 191.5,113.5C 191.738,115.404 192.738,116.738 194.5,117.5C 196.587,118.585 197.92,120.251 198.5,122.5C 198.427,124.027 199.094,125.027 200.5,125.5C 202.008,127.181 203.008,129.181 203.5,131.5C 203.41,134.152 204.076,136.485 205.5,138.5C 206.783,151.493 203.283,163.16 195,173.5C 183.557,186.437 169.39,194.937 152.5,199C 152.167,199.333 151.833,199.667 151.5,200C 152.984,200.662 154.317,201.496 155.5,202.5C 155.427,204.027 156.094,205.027 157.5,205.5C 159.754,206.415 161.754,207.748 163.5,209.5C 163.738,211.404 164.738,212.738 166.5,213.5C 168.833,215.167 170.833,217.167 172.5,219.5C 172.427,221.027 173.094,222.027 174.5,222.5C 179.833,227.167 184.833,232.167 189.5,237.5C 190.035,239.446 191.368,240.446 193.5,240.5C 203.09,246.586 213.423,250.919 224.5,253.5C 228.646,254.647 232.98,254.814 237.5,254C 239.32,253.8 240.653,252.966 241.5,251.5C 245.053,249.965 248.386,247.965 251.5,245.5C 253.027,245.573 254.027,244.906 254.5,243.5C 254.5,242.833 254.833,242.5 255.5,242.5C 257.262,241.738 258.262,240.404 258.5,238.5C 259.906,238.027 260.573,237.027 260.5,235.5C 260.833,234.5 261.5,233.833 262.5,233.5C 263.906,233.027 264.573,232.027 264.5,230.5C 264.66,228.847 265.326,227.514 266.5,226.5C 267.906,226.027 268.573,225.027 268.5,223.5C 269.906,223.027 270.573,222.027 270.5,220.5C 277.594,206.309 283.594,191.642 288.5,176.5C 290.213,175.365 290.88,173.698 290.5,171.5C 296.621,142.348 293.287,114.348 280.5,87.5C 280.715,85.8212 280.048,84.8212 278.5,84.5C 276.975,82.7837 275.975,80.7837 275.5,78.5C 275.715,76.8212 275.048,75.8212 273.5,75.5C 272.833,74.1667 272.167,72.8333 271.5,71.5C 271.715,69.8212 271.048,68.8212 269.5,68.5C 266.197,64.3488 263.03,60.0155 260,55.5C 255.626,51.9607 251.793,47.9607 248.5,43.5C 248.027,42.0937 247.027,41.427 245.5,41.5C 245.027,40.0937 244.027,39.427 242.5,39.5C 241.508,39.6716 240.842,39.3382 240.5,38.5C 240.027,37.0937 239.027,36.427 237.5,36.5C 230.553,33.0266 223.553,29.5266 216.5,26C 166.814,13.2367 120.148,21.57 76.5,51C 48.8065,73.1863 30.8065,101.686 22.5,136.5C 21.6862,138.631 21.1862,140.964 21,143.5C 20.172,159.339 20.3387,175.005 21.5,190.5C 23.1952,201.643 25.5286,212.643 28.5,223.5C 28.1201,225.698 28.7868,227.365 30.5,228.5C 34.6924,237.077 38.6924,245.744 42.5,254.5C 42.427,256.027 43.0937,257.027 44.5,257.5C 44.427,259.027 45.0937,260.027 46.5,260.5C 47.6737,261.514 48.3404,262.847 48.5,264.5C 48.7376,266.404 49.7376,267.738 51.5,268.5C 51.427,270.027 52.0937,271.027 53.5,271.5C 53.427,273.027 54.0937,274.027 55.5,274.5C 57.0627,275.945 58.396,277.611 59.5,279.5C 59.7376,281.404 60.7376,282.738 62.5,283.5C 62.5,285.5 63.5,286.5 65.5,286.5C 65.7376,288.404 66.7376,289.738 68.5,290.5C 70.1405,291.147 71.4739,292.147 72.5,293.5C 72.5,295.5 73.5,296.5 75.5,296.5C 106.037,323.912 142.037,337.746 183.5,338C 195.258,338.966 206.925,338.466 218.5,336.5C 221.716,336.655 224.383,335.655 226.5,333.5C 237.563,329.367 248.563,325.034 259.5,320.5C 261.027,320.573 262.027,319.906 262.5,318.5C 264.05,317.559 265.716,316.893 267.5,316.5C 269.027,316.573 270.027,315.906 270.5,314.5C 270.5,313.833 270.833,313.5 271.5,313.5C 273.027,313.573 274.027,312.906 274.5,311.5C 276.749,310.92 278.415,309.587 279.5,307.5C 280.833,305.5 282.5,303.833 284.5,302.5C 286.5,302.5 287.5,301.5 287.5,299.5C 289.833,299.167 291.167,297.833 291.5,295.5C 293.833,295.167 295.167,293.833 295.5,291.5C 297.833,291.167 299.167,289.833 299.5,287.5C 299.833,286.5 300.5,285.833 301.5,285.5C 303.262,284.738 304.262,283.404 304.5,281.5C 308.607,276.273 312.94,271.273 317.5,266.5C 318.906,266.027 319.573,265.027 319.5,263.5C 320.906,263.027 321.573,262.027 321.5,260.5C 326.425,250.982 331.092,241.315 335.5,231.5C 337.213,230.365 337.88,228.698 337.5,226.5C 337.5,226.167 337.5,225.833 337.5,225.5C 339.213,224.365 339.88,222.698 339.5,220.5C 340.998,208.214 342.164,195.88 343,183.5C 348.086,174.581 354.752,173.247 363,179.5C 363.757,181.315 364.59,182.981 365.5,184.5C 365.5,186.167 365.5,187.833 365.5,189.5C 365.354,208.021 361.854,226.021 355,243.5C 345.619,266.199 332.286,286.199 315,303.5C 305.769,313.401 295.936,322.567 285.5,331C 262.744,344.586 238.411,354.253 212.5,360C 187.965,360.638 163.632,358.805 139.5,354.5C 137.562,352.837 135.228,352.171 132.5,352.5C 124.476,351.158 116.81,348.658 109.5,345C 100.626,340.063 91.6257,335.396 82.5,331C 81.6195,330.292 80.9528,329.458 80.5,328.5C 80.0269,327.094 79.0269,326.427 77.5,326.5C 75.2512,325.92 73.5846,324.587 72.5,322.5C 71.7377,320.738 70.4044,319.738 68.5,319.5C 66.5,318.167 64.8333,316.5 63.5,314.5C 62.7377,312.738 61.4044,311.738 59.5,311.5C 56.5,309.167 53.8333,306.5 51.5,303.5C 51.5,302.167 50.8333,301.5 49.5,301.5C 43.4792,294.139 37.8126,286.472 32.5,278.5C 32.7148,276.821 32.0481,275.821 30.5,275.5C 12.6028,248.807 2.26948,219.474 -0.5,187.5C -0.5,176.167 -0.5,164.833 -0.5,153.5C -0.233443,141.234 1.76656,129.234 5.5,117.5C 6.92381,115.485 7.59047,113.152 7.5,110.5C 9.98929,103.528 12.9893,96.861 16.5,90.5C 17.9063,90.0269 18.573,89.0269 18.5,87.5C 20.3068,83.8864 22.1401,80.2198 24,76.5C 24.7083,75.6195 25.5416,74.9528 26.5,74.5C 28.2624,73.7377 29.2624,72.4044 29.5,70.5C 29.3284,69.5084 29.6618,68.8417 30.5,68.5C 31.9063,68.0269 32.573,67.0269 32.5,65.5C 33.1237,63.246 34.457,61.5794 36.5,60.5C 38.2624,59.7377 39.2624,58.4044 39.5,56.5C 41.7488,55.9202 43.4154,54.5869 44.5,52.5C 45.8333,50.5 47.5,48.8333 49.5,47.5C 51.8333,45.8333 53.8333,43.8333 55.5,41.5C 56.5116,40.1283 57.5116,38.795 58.5,37.5C 60.0269,37.573 61.0269,36.9063 61.5,35.5C 62.5794,33.457 64.246,32.1237 66.5,31.5C 68.0269,31.573 69.0269,30.9063 69.5,29.5C 72.4937,27.0002 75.827,25.0002 79.5,23.5C 81.0269,23.573 82.0269,22.9063 82.5,21.5C 83.1667,21.1667 83.8333,20.8333 84.5,20.5C 86.0269,20.573 87.0269,19.9063 87.5,18.5C 93.6775,15.4415 100.011,12.7748 106.5,10.5C 111.165,9.9431 115.498,8.60976 119.5,6.5C 123.761,6.10161 127.761,5.10161 131.5,3.5C 136.134,2.0401 140.801,0.706764 145.5,-0.5 Z M 155.5,118.5 C 157.515,119.924 159.848,120.59 162.5,120.5C 164.849,122.341 167.515,123.674 170.5,124.5C 170.973,125.906 171.973,126.573 173.5,126.5C 174.833,128.5 176.5,130.167 178.5,131.5C 179.167,132.5 179.833,133.5 180.5,134.5C 180.932,135.71 181.599,136.71 182.5,137.5C 184.102,143.748 183.435,149.748 180.5,155.5C 179.094,155.973 178.427,156.973 178.5,158.5C 166.317,174.232 150.317,180.565 130.5,177.5C 128.156,177.06 126.156,176.06 124.5,174.5C 125.296,164.525 126.129,154.525 127,144.5C 128.789,127.205 138.289,118.539 155.5,118.5 Z"/></g>
<g><path style="opacity:0.835" fill="#707070" d="M 131.5,3.5 C 127.761,5.10161 123.761,6.10161 119.5,6.5C 123.163,4.58413 127.163,3.58413 131.5,3.5 Z"/></g>
<g><path style="opacity:0.933" fill="#434343" d="M 119.5,6.5 C 115.498,8.60976 111.165,9.9431 106.5,10.5C 110.502,8.39024 114.835,7.0569 119.5,6.5 Z"/></g>
<g><path style="opacity:0.914" fill="#717171" d="M 244.5,16.5 C 245.71,16.9321 246.71,17.5987 247.5,18.5C 245.821,18.7148 244.821,18.0481 244.5,16.5 Z"/></g>
<g><path style="opacity:0.639" fill="#919191" d="M 87.5,18.5 C 87.0269,19.9063 86.0269,20.573 84.5,20.5C 84.9731,19.0937 85.9731,18.427 87.5,18.5 Z"/></g>
<g><path style="opacity:0.89" fill="#7d7d7d" d="M 251.5,20.5 C 253.23,21.0256 254.564,22.0256 255.5,23.5C 253.368,23.4456 252.035,22.4456 251.5,20.5 Z"/></g>
<g><path style="opacity:0.765" fill="#757575" d="M 82.5,21.5 C 82.0269,22.9063 81.0269,23.573 79.5,23.5C 79.9731,22.0937 80.9731,21.427 82.5,21.5 Z"/></g>
<g><path style="opacity:0.749" fill="#767676" d="M 69.5,29.5 C 69.0269,30.9063 68.0269,31.573 66.5,31.5C 66.9731,30.0937 67.9731,29.427 69.5,29.5 Z"/></g>
<g><path style="opacity:0.698" fill="#7d7d7d" d="M 61.5,35.5 C 61.0269,36.9063 60.0269,37.573 58.5,37.5C 58.9731,36.0937 59.9731,35.427 61.5,35.5 Z"/></g>
<g><path style="opacity:0.561" fill="#787878" d="M 237.5,36.5 C 239.027,36.427 240.027,37.0937 240.5,38.5C 238.973,38.573 237.973,37.9063 237.5,36.5 Z"/></g>
<g><path style="opacity:0.541" fill="#7d7d7d" d="M 242.5,39.5 C 244.027,39.427 245.027,40.0937 245.5,41.5C 243.973,41.573 242.973,40.9063 242.5,39.5 Z"/></g>
<g><path style="opacity:0.753" fill="#868686" d="M 273.5,39.5 C 275.262,40.2623 276.262,41.5956 276.5,43.5C 274.738,42.7377 273.738,41.4044 273.5,39.5 Z"/></g>
<g><path style="opacity:0.514" fill="#808080" d="M 245.5,41.5 C 247.027,41.427 248.027,42.0937 248.5,43.5C 246.973,43.573 245.973,42.9063 245.5,41.5 Z"/></g>
<g><path style="opacity:0.686" fill="#838383" d="M 55.5,41.5 C 53.8333,43.8333 51.8333,45.8333 49.5,47.5C 50.5,44.5 52.5,42.5 55.5,41.5 Z"/></g>
<g><path style="opacity:0.675" fill="#8b8b8b" d="M 280.5,47.5 C 281.906,47.9731 282.573,48.9731 282.5,50.5C 281.094,50.0269 280.427,49.0269 280.5,47.5 Z"/></g>
<g><path style="opacity:0.745" fill="#757575" d="M 44.5,52.5 C 43.4154,54.5869 41.7488,55.9202 39.5,56.5C 40.5846,54.4131 42.2512,53.0798 44.5,52.5 Z"/></g>
<g><path style="opacity:0.737" fill="#818181" d="M 39.5,56.5 C 39.2624,58.4044 38.2624,59.7377 36.5,60.5C 36.7376,58.5956 37.7376,57.2623 39.5,56.5 Z"/></g>
<g><path style="opacity:0.51" fill="#818181" d="M 32.5,65.5 C 32.573,67.0269 31.9063,68.0269 30.5,68.5C 30.427,66.9731 31.0937,65.9731 32.5,65.5 Z"/></g>
<g><path style="opacity:0.902" fill="#767676" d="M 269.5,68.5 C 271.048,68.8212 271.715,69.8212 271.5,71.5C 270.599,70.7095 269.932,69.7095 269.5,68.5 Z"/></g>
<g><path style="opacity:0.824" fill="#767676" d="M 29.5,70.5 C 29.2624,72.4044 28.2624,73.7377 26.5,74.5C 26.7376,72.5956 27.7376,71.2623 29.5,70.5 Z"/></g>
<g><path style="opacity:0.933" fill="#6b6b6b" d="M 273.5,75.5 C 275.048,75.8212 275.715,76.8212 275.5,78.5C 274.599,77.7095 273.932,76.7095 273.5,75.5 Z"/></g>
<g><path style="opacity:0.914" fill="#6c6c6c" d="M 278.5,84.5 C 280.048,84.8212 280.715,85.8212 280.5,87.5C 279.599,86.7095 278.932,85.7095 278.5,84.5 Z"/></g>
<g><path style="opacity:0.388" fill="#8d8d8d" d="M 18.5,87.5 C 18.573,89.0269 17.9063,90.0269 16.5,90.5C 16.427,88.9731 17.0937,87.9731 18.5,87.5 Z"/></g>
<g><path style="opacity:0.902" fill="#767676" d="M 174.5,102.5 C 175.71,102.932 176.71,103.599 177.5,104.5C 175.821,104.715 174.821,104.048 174.5,102.5 Z"/></g>
<g><path style="opacity:0.925" fill="#5b5b5b" d="M 7.5,110.5 C 7.59047,113.152 6.92381,115.485 5.5,117.5C 5.40953,114.848 6.07619,112.515 7.5,110.5 Z"/></g>
<g><path style="opacity:0.675" fill="#8b8b8b" d="M 191.5,113.5 C 193.262,114.262 194.262,115.596 194.5,117.5C 192.738,116.738 191.738,115.404 191.5,113.5 Z"/></g>
<g><path style="opacity:0.894" fill="#626262" d="M 155.5,118.5 C 158.152,118.41 160.485,119.076 162.5,120.5C 159.848,120.59 157.515,119.924 155.5,118.5 Z"/></g>
<g><path style="opacity:0.49" fill="#858585" d="M 198.5,122.5 C 199.906,122.973 200.573,123.973 200.5,125.5C 199.094,125.027 198.427,124.027 198.5,122.5 Z"/></g>
<g><path style="opacity:0.506" fill="#818181" d="M 170.5,124.5 C 172.027,124.427 173.027,125.094 173.5,126.5C 171.973,126.573 170.973,125.906 170.5,124.5 Z"/></g>
<g><path style="opacity:0.824" fill="#8a8a8a" d="M 173.5,126.5 C 176.167,127.167 177.833,128.833 178.5,131.5C 176.5,130.167 174.833,128.5 173.5,126.5 Z"/></g>
<g><path style="opacity:0.839" fill="#848484" d="M 180.5,134.5 C 182.048,134.821 182.715,135.821 182.5,137.5C 181.599,136.71 180.932,135.71 180.5,134.5 Z"/></g>
<g><path style="opacity:0.467" fill="#8e8e8e" d="M 203.5,131.5 C 204.924,133.515 205.59,135.848 205.5,138.5C 204.076,136.485 203.41,134.152 203.5,131.5 Z"/></g>
<g><path style="opacity:0.61" fill="#888888" d="M 22.5,136.5 C 21.6163,154.483 21.283,172.483 21.5,190.5C 20.3387,175.005 20.172,159.339 21,143.5C 21.1862,140.964 21.6862,138.631 22.5,136.5 Z"/></g>
<g><path style="opacity:0.337" fill="#9f9f9f" d="M 180.5,155.5 C 180.573,157.027 179.906,158.027 178.5,158.5C 178.427,156.973 179.094,155.973 180.5,155.5 Z"/></g>
<g><path style="opacity:0.867" fill="#707070" d="M 290.5,171.5 C 290.88,173.698 290.213,175.365 288.5,176.5C 288.796,174.597 289.463,172.93 290.5,171.5 Z"/></g>
<g><path style="opacity:0.571" fill="#777777" d="M 124.5,174.5 C 126.156,176.06 128.156,177.06 130.5,177.5C 128.167,177.5 125.833,177.5 123.5,177.5C 123.263,176.209 123.596,175.209 124.5,174.5 Z"/></g>
<g><path style="opacity:0.655" fill="#878787" d="M 102.5,174.5 C 101.896,193.985 101.229,213.318 100.5,232.5C 100.333,214.497 100.5,196.497 101,178.5C 101.21,176.942 101.71,175.609 102.5,174.5 Z"/></g>
<g><path style="opacity:0.702" fill="#818181" d="M 155.5,202.5 C 156.906,202.973 157.573,203.973 157.5,205.5C 156.094,205.027 155.427,204.027 155.5,202.5 Z"/></g>
<g><path style="opacity:0.624" fill="#939393" d="M 163.5,209.5 C 165.262,210.262 166.262,211.596 166.5,213.5C 164.738,212.738 163.738,211.404 163.5,209.5 Z"/></g>
<g><path style="opacity:0.741" fill="#7c7c7c" d="M 139.5,217.5 C 141.027,217.427 142.027,218.094 142.5,219.5C 140.973,219.573 139.973,218.906 139.5,217.5 Z"/></g>
<g><path style="opacity:0.682" fill="#898989" d="M 172.5,219.5 C 173.906,219.973 174.573,220.973 174.5,222.5C 173.094,222.027 172.427,221.027 172.5,219.5 Z"/></g>
<g><path style="opacity:0.702" fill="#868686" d="M 143.5,221.5 C 145.027,221.427 146.027,222.094 146.5,223.5C 144.973,223.573 143.973,222.906 143.5,221.5 Z"/></g>
<g><path style="opacity:0.569" fill="#777777" d="M 270.5,220.5 C 270.573,222.027 269.906,223.027 268.5,223.5C 268.427,221.973 269.094,220.973 270.5,220.5 Z"/></g>
<g><path style="opacity:0.863" fill="#6e6e6e" d="M 339.5,220.5 C 339.88,222.698 339.213,224.365 337.5,225.5C 337.796,223.597 338.463,221.93 339.5,220.5 Z"/></g>
<g><path style="opacity:0.549" fill="#7b7b7b" d="M 268.5,223.5 C 268.573,225.027 267.906,226.027 266.5,226.5C 266.427,224.973 267.094,223.973 268.5,223.5 Z"/></g>
<g><path style="opacity:0.812" fill="#7b7b7b" d="M 28.5,223.5 C 29.5375,224.93 30.2041,226.597 30.5,228.5C 28.7868,227.365 28.1201,225.698 28.5,223.5 Z"/></g>
<g><path style="opacity:0.851" fill="#717171" d="M 337.5,226.5 C 337.88,228.698 337.213,230.365 335.5,231.5C 335.796,229.597 336.463,227.93 337.5,226.5 Z"/></g>
<g><path style="opacity:0.455" fill="#929292" d="M 264.5,230.5 C 264.573,232.027 263.906,233.027 262.5,233.5C 262.427,231.973 263.094,230.973 264.5,230.5 Z"/></g>
<g><path style="opacity:0.631" fill="#9a9a9a" d="M 260.5,235.5 C 260.573,237.027 259.906,238.027 258.5,238.5C 258.427,236.973 259.094,235.973 260.5,235.5 Z"/></g>
<g><path style="opacity:0.961" fill="#727272" d="M 189.5,237.5 C 191.23,238.026 192.564,239.026 193.5,240.5C 191.368,240.446 190.035,239.446 189.5,237.5 Z"/></g>
<g><path style="opacity:0.867" fill="#6c6c6c" d="M 258.5,238.5 C 258.262,240.404 257.262,241.738 255.5,242.5C 255.738,240.596 256.738,239.262 258.5,238.5 Z"/></g>
<g><path style="opacity:0.694" fill="#848484" d="M 254.5,243.5 C 254.027,244.906 253.027,245.573 251.5,245.5C 251.973,244.094 252.973,243.427 254.5,243.5 Z"/></g>
<g><path style="opacity:0.753" fill="#7a7a7a" d="M 172.5,251.5 C 174.027,251.427 175.027,252.094 175.5,253.5C 173.973,253.573 172.973,252.906 172.5,251.5 Z"/></g>
<g><path style="opacity:0.388" fill="#808080" d="M 241.5,251.5 C 240.653,252.966 239.32,253.8 237.5,254C 232.98,254.814 228.646,254.647 224.5,253.5C 230.323,253.877 235.989,253.21 241.5,251.5 Z"/></g>
<g><path style="opacity:0.439" fill="#8f8f8f" d="M 42.5,254.5 C 43.9063,254.973 44.573,255.973 44.5,257.5C 43.0937,257.027 42.427,256.027 42.5,254.5 Z"/></g>
<g><path style="opacity:0.478" fill="#898989" d="M 44.5,257.5 C 45.9063,257.973 46.573,258.973 46.5,260.5C 45.0937,260.027 44.427,259.027 44.5,257.5 Z"/></g>
<g><path style="opacity:0.478" fill="#8f8f8f" d="M 321.5,260.5 C 321.573,262.027 320.906,263.027 319.5,263.5C 319.427,261.973 320.094,260.973 321.5,260.5 Z"/></g>
<g><path style="opacity:0.729" fill="#818181" d="M 319.5,263.5 C 319.573,265.027 318.906,266.027 317.5,266.5C 317.427,264.973 318.094,263.973 319.5,263.5 Z"/></g>
<g><path style="opacity:0.89" fill="#6c6c6c" d="M 48.5,264.5 C 50.2624,265.262 51.2624,266.596 51.5,268.5C 49.7376,267.738 48.7376,266.404 48.5,264.5 Z"/></g>
<g><path style="opacity:0.882" fill="#6e6e6e" d="M 200.5,268.5 C 202.698,268.12 204.365,268.787 205.5,270.5C 203.597,270.204 201.93,269.537 200.5,268.5 Z"/></g>
<g><path style="opacity:0.729" fill="#818181" d="M 51.5,268.5 C 52.9063,268.973 53.573,269.973 53.5,271.5C 52.0937,271.027 51.427,270.027 51.5,268.5 Z"/></g>
<g><path style="opacity:0.863" fill="#6d6d6d" d="M 210.5,271.5 C 212.698,271.12 214.365,271.787 215.5,273.5C 213.597,273.204 211.93,272.537 210.5,271.5 Z"/></g>
<g><path style="opacity:0.569" fill="#797979" d="M 53.5,271.5 C 54.9063,271.973 55.573,272.973 55.5,274.5C 54.0937,274.027 53.427,273.027 53.5,271.5 Z"/></g>
<g><path style="opacity:0.816" fill="#868686" d="M 30.5,275.5 C 32.0481,275.821 32.7148,276.821 32.5,278.5C 31.5987,277.71 30.9321,276.71 30.5,275.5 Z"/></g>
<g><path style="opacity:0.784" fill="#808080" d="M 59.5,279.5 C 61.2624,280.262 62.2624,281.596 62.5,283.5C 60.7376,282.738 59.7376,281.404 59.5,279.5 Z"/></g>
<g><path style="opacity:0.871" fill="#727272" d="M 62.5,283.5 C 63.8333,284.167 64.8333,285.167 65.5,286.5C 63.5,286.5 62.5,285.5 62.5,283.5 Z"/></g>
<g><path style="opacity:0.529" fill="#8e8e8e" d="M 304.5,281.5 C 304.262,283.404 303.262,284.738 301.5,285.5C 301.738,283.596 302.738,282.262 304.5,281.5 Z"/></g>
<g><path style="opacity:0.698" fill="#8d8d8d" d="M 65.5,286.5 C 67.2624,287.262 68.2624,288.596 68.5,290.5C 66.7376,289.738 65.7376,288.404 65.5,286.5 Z"/></g>
<g><path style="opacity:0.627" fill="#828282" d="M 299.5,287.5 C 299.167,289.833 297.833,291.167 295.5,291.5C 296.5,289.833 297.833,288.5 299.5,287.5 Z"/></g>
<g><path style="opacity:0.722" fill="#747474" d="M 295.5,291.5 C 295.167,293.833 293.833,295.167 291.5,295.5C 292.5,293.833 293.833,292.5 295.5,291.5 Z"/></g>
<g><path style="opacity:0.651" fill="#9b9b9b" d="M 72.5,293.5 C 73.8333,294.167 74.8333,295.167 75.5,296.5C 73.5,296.5 72.5,295.5 72.5,293.5 Z"/></g>
<g><path style="opacity:0.757" fill="#6c6c6c" d="M 291.5,295.5 C 291.167,297.833 289.833,299.167 287.5,299.5C 288.5,297.833 289.833,296.5 291.5,295.5 Z"/></g>
<g><path style="opacity:0.647" fill="#9c9c9c" d="M 49.5,301.5 C 50.8333,301.5 51.5,302.167 51.5,303.5C 50.5,303.167 49.8333,302.5 49.5,301.5 Z"/></g>
<g><path style="opacity:0.78" fill="#6d6d6d" d="M 287.5,299.5 C 287.5,301.5 286.5,302.5 284.5,302.5C 285.167,301.167 286.167,300.167 287.5,299.5 Z"/></g>
<g><path style="opacity:0.863" fill="#686868" d="M 279.5,307.5 C 278.415,309.587 276.749,310.92 274.5,311.5C 275.585,309.413 277.251,308.08 279.5,307.5 Z"/></g>
<g><path style="opacity:0.859" fill="#757575" d="M 59.5,311.5 C 61.4044,311.738 62.7377,312.738 63.5,314.5C 61.5956,314.262 60.2623,313.262 59.5,311.5 Z"/></g>
<g><path style="opacity:0.718" fill="#7c7c7c" d="M 274.5,311.5 C 274.027,312.906 273.027,313.573 271.5,313.5C 271.973,312.094 272.973,311.427 274.5,311.5 Z"/></g>
<g><path style="opacity:0.741" fill="#797979" d="M 270.5,314.5 C 270.027,315.906 269.027,316.573 267.5,316.5C 267.973,315.094 268.973,314.427 270.5,314.5 Z"/></g>
<g><path style="opacity:0.69" fill="#929292" d="M 68.5,319.5 C 70.4044,319.738 71.7377,320.738 72.5,322.5C 70.5956,322.262 69.2623,321.262 68.5,319.5 Z"/></g>
<g><path style="opacity:0.82" fill="#6d6d6d" d="M 262.5,318.5 C 262.027,319.906 261.027,320.573 259.5,320.5C 259.973,319.094 260.973,318.427 262.5,318.5 Z"/></g>
<g><path style="opacity:0.498" fill="#878787" d="M 77.5,326.5 C 79.0269,326.427 80.0269,327.094 80.5,328.5C 78.9731,328.573 77.9731,327.906 77.5,326.5 Z"/></g>
<g><path style="opacity:0.863" fill="#686868" d="M 226.5,333.5 C 224.383,335.655 221.716,336.655 218.5,336.5C 220.936,335.129 223.603,334.129 226.5,333.5 Z"/></g>
<g><path style="opacity:0.816" fill="#777777" d="M 132.5,352.5 C 135.228,352.171 137.562,352.837 139.5,354.5C 136.933,354.279 134.599,353.612 132.5,352.5 Z"/></g>
</svg>
