<svg width="1443" height="1443" viewBox="0 0 1443 1443" fill="none" xmlns="http://www.w3.org/2000/svg">
<g clip-path="url(#clip0_454_506)">
<rect x="166" y="207" width="1095" height="312" rx="90" fill="url(#paint0_linear_454_506)"/>
<path d="M912.416 279.271C828.709 257.889 742.846 246.072 656.474 244.049L567.055 241.979C560.638 241.836 554.369 243.912 549.307 247.858C544.245 251.803 540.7 257.375 539.272 263.633L521.986 338.979C492.961 465.638 475.21 594.619 468.943 724.41L465.234 801.625C464.896 808.58 467.174 815.41 471.621 820.769C476.067 826.128 482.36 829.627 489.258 830.577L603.568 846.308L547.343 1254.87C546.567 1260.58 547.583 1266.39 550.25 1271.5C552.917 1276.61 557.104 1280.77 562.233 1283.4C567.363 1286.03 573.182 1287.01 578.89 1286.19C584.597 1285.38 589.91 1282.81 594.097 1278.85L619.401 1254.77C770.137 1111.5 897.336 945.354 996.31 762.454L1010.65 735.913C1012.79 731.953 1013.95 727.532 1014.01 723.029C1014.07 718.526 1013.04 714.075 1011.01 710.058C1008.97 706.04 1005.99 702.575 1002.33 699.961C998.659 697.346 994.413 695.66 989.952 695.046L840.206 674.438L1016.79 341.496C1018.76 337.77 1019.87 333.644 1020.02 329.429C1020.18 325.213 1019.37 321.018 1017.66 317.16C1015.96 313.302 1013.4 309.882 1010.18 307.158C1006.96 304.433 1003.16 302.476 999.071 301.433L912.416 279.271Z" fill="url(#paint1_linear_454_506)"/>
</g>
<defs>
<linearGradient id="paint0_linear_454_506" x1="713.5" y1="207" x2="712.891" y2="1280.11" gradientUnits="userSpaceOnUse">
<stop stop-color="#F39F1F"/>
<stop offset="1" stop-color="#FF5C00"/>
</linearGradient>
<linearGradient id="paint1_linear_454_506" x1="667.434" y1="219.45" x2="658.176" y2="1298.19" gradientUnits="userSpaceOnUse">
<stop stop-color="#F39F1F"/>
<stop offset="1" stop-color="#FF5C00"/>
</linearGradient>
<clipPath id="clip0_454_506">
<rect width="1443" height="1443" fill="white"/>
</clipPath>
</defs>
</svg>
